<?xml version="1.0" encoding="UTF-8"?>
<svg id="Layer_1" xmlns="http://www.w3.org/2000/svg" version="1.1" viewBox="0 0 1024 1024">
  <!-- Generator: Adobe Illustrator 29.6.1, SVG Export Plug-In . SVG Version: 2.1.1 Build 9)  -->
  <defs>
    <style>
      .st0, .st1 {
        fill: gray;
      }

      .st2 {
        fill: #fff;
      }

      .st1 {
        stroke: #666;
        stroke-miterlimit: 10;
      }
    </style>
  </defs>
  <path d="M799.18,281.9c29.9,29.24,22,83.08-9.41,108.28l-106.04,265.6c-.07,3.37-1.38,6.25,2.45,7.37,7.07,2.05,17.59,3.24,25.25,4.72,69.99,13.55,142.65,22.71,212,37.75,18.16,3.94,31.12,11.74,32.93,32.01,3.02,33.75-2.25,71.72.05,105.92-.83,10.53-4.53,17.74-12.55,24.42-51.59,28.8-102.98,66.95-155.66,93.1-24.11,11.97-45.94,2.9-70.23-3.04-125.78-30.75-252.2-62.61-377.22-96.32-22.64-6.1-48.49-8.15-50.77-37.14,1.92-31.52-2.43-65.79,0-96.98,1.14-14.67,7.05-23.67,20.76-29.2l164.59-50.2c2.67-16.64,12.35-33.84,25.47-44.46,3.73-3.01,10.54-5.59,12.77-9.21l99.98-261.37-175.51-129.18-4.38-1.17c-30.48,10.4-63.99,16.12-94.2,26.79-5.79,2.04-11.71,4.35-15.95,9.02l-.49,47.42c.68,3.47,6.64,4.84,8.22,8.76.89,2.21,1.6,8.51,1.79,11.2,2.84,40.45-2.24,84.16,0,124.96-1.43,18.15-12.85,27.12-29.05,32.89-41.55,14.8-152.27,15.69-191.08-5.64-12.18-6.69-17.39-15.71-18.54-29.41-3.37-40.05,2.24-84.25-.12-124.74.52-3.42,1.27-6.87,3.15-9.84,2.17-3.43,7.22-5.18,7.81-8.18l.06-43.78c-15.07-4.61-34-12.6-36.77-30.37-2.06-13.19-2.74-50.84.01-63.44,7.65-35.09,54.53-37.53,83.29-41.58,63.15-8.89,132.6-12.24,194.37-25.42,13.62-2.91,14.19-7.8,25.12-13.84,19.49-10.78,40.2-12.6,61.82-8.53,23.6,4.45,54.81,12.89,77.93,19.97,21.13,6.47,33.82,18.41,41.9,39.02l199.49,143.18c17.2,3.9,33.67,7.86,46.76,20.67ZM462.82,96.78c-20.73-7.11-41.57-13.77-63.9-12.02l57.72,20.8c2.88,1.11,7.13-7.43,6.17-8.78ZM95.22,171.16v33.97c0,2.75,6.08,5.6,8.32,6.66,35.91,16.99,116.52,18.36,156.01,13.8,15.98-1.84,32.23-5,47.47-9.98v-37.96c-12.9,1.94-25.61,5.29-38.59,6.87-18.91,2.3-45.99,3.83-64.8,2.1-21.47-1.97-18.94-24.52-4.03-25.99,3.78-.37,6.61,1,9.96,1.07,27.26.56,58.01-.65,84.66-6.33,9.88-2.11,18.79-6.2,28.34-8.62,31.67-8.03,63.72-14.81,95.32-23.07l-50.41-17.8c-62.25,13.17-125.79,17.16-188.84,24.81-16.39,1.99-68.37,7.47-79.78,16.13-1.13.86-2.04,1.05-1.65,2.83,1.22,1.63,25.3,6.39,29.5,8.97,4.47,2.76,5.92,10.35,2.5,14.55-7.25,8.91-22.58-2.43-30.76-3.36-1.29-.15-2.85,0-3.24,1.33ZM495.55,108.95c-14.37,3-21.75,26.21-20.58,39.11,2.44,27.04,34.4,40.21,48,12.28,10.05-20.62-.07-57.11-27.42-51.4ZM447.87,140.69l-115.89,28.98c.74,1.41,1.01,2.82,1.06,4.42.29,8.91.14,18.87-1.06,27.52l119.89-30.96c-2.21-9.93-4.75-19.62-4.01-29.97ZM531.8,194.62l160.57,114.75c1.32.52,1.86.03,2.77-.84,1.75-1.67,4.76-10.33,6.67-13.31,5.71-8.93,14.39-15.9,22.78-22.16l-169.32-121.38c-2.91,17-10.91,28.48-22.37,40.58-.73.77-1.54.7-1.1,2.36ZM654.67,313.52l-150.27-108.97c-7.19-1.56-14.55-1.71-21.76-3.21-.59-.12-11.94-4.56-7.75-1.25,50.23,39.69,104.11,75,155.31,113.43h24.48ZM297.02,246.59c-54.2,10.41-110.42,9.48-164.84,1v44.46c7.6,4.48,18.07,6.6,26.77,8.2,32.69,6.02,68.56,6.49,101.47,2.15,12.51-1.65,24.93-4.08,36.61-8.85v-46.95ZM747.34,291.8c-35.76,5.18-45.02,78.26-.25,82.65,55.64,5.46,61.19-91.47.25-82.65ZM306.01,319.52c-5.98,1.37-11.78,3.4-17.79,4.68-37.84,8.1-80.07,8.67-118.45,4.18-15.71-1.84-31.4-4.9-46.51-9.47l-2.07,1.1v110.89c3.36,3.41,8.55,5.35,13.03,6.95,37.47,13.38,122.64,13.91,160.05.29,2.74-1,11.74-4.06,11.74-7.24v-111.39ZM698.63,371.46c-7.15-9.29-7.51-21.31-10.46-31.98l-46.82-2.81-11.59,25.38,1.39,1.45,67.49,7.96ZM709.62,400.44l-90.75-10.82-79.08,208.62,82.83,14.91,87.01-212.71ZM758.56,401.44l-23.08,1.61-86.4,213.21c6.62,2.68,13.02,5.78,18.09,10.94l91.39-225.77ZM590.73,703.14c-.79-19.8.61-39.63,6.98-58.46.83-2.47,2.4-4.59,3.2-6.81.37-1.03,1.42-.99-.15-2.18l-79.76-13.79c-17.34,7.52-24.89,41.23-18.37,56.97,2.84,6.86,6.81,7.04,13.17,8.81,23.96,6.68,50.62,9.68,74.94,15.47ZM616.72,704.14c5.71-4.13,38.44-13.77,40.79-17.64,3.23-5.34.47-24.56-1.8-30.84-5.5-15.22-21.14-24.29-31.82-7.78-10.05,15.53-8.51,38.56-7.16,56.26ZM474.84,675.17l-124.88,38.95,406.23,93.78c8.56.86,16.99-1.63,24.71-5.01,26.45-11.59,57.41-30.42,83.23-44.64,15.84-8.72,31.56-17.72,47.28-26.65l-225.28-42.55-1.61.68c-1.7,7.01-2.13,12-7.97,16.81-7.25,5.97-49.29,20.93-60.07,23.85-5.5,1.49-10.35,2.37-16.14,1.6-30.91-7.99-63.85-12.02-94.54-20.34-18.27-4.95-30.32-16.69-30.96-36.47ZM757.57,834.01l-441.57-102.9v95.41c0,.64,1.37,2.55,2.27,2.82l437.02,111.41,2.28-1.33v-105.4ZM781.55,934.92c3.67-.21,7.34-2.97,10.66-4.82,42.45-23.67,88.23-50.5,129.12-76.68,4.77-3.05,10.56-4.86,11.13-10.84.79-8.19-.87-17.84-1.11-26l.04-67.47-149.84,83.42v102.4Z"/>
  <path class="st2" d="M757.57,834.01v105.4l-2.28,1.33-437.02-111.41c-.9-.26-2.27-2.18-2.27-2.82v-95.41l441.57,102.9ZM654.43,830.23c-3.72.6-7.31,3.48-7.8,7.23-1.35,10.18-.2,33.35,1.03,44.03.45,3.91,3.5,7.3,6.68,9.31,5.32,3.36,52.09,15.53,60.23,16.69,8.89,1.26,14.3-1.18,14.12-11.04-.19-10.78.02-26.75-1.08-36.97-1.17-10.88-9.02-13.2-17.99-15.98-16.48-5.1-34.23-7.89-50.73-13.25-1.5-.43-2.95-.27-4.46-.02Z"/>
  <path class="st2" d="M474.84,675.17c.64,19.78,12.69,31.52,30.96,36.47,30.69,8.32,63.63,12.35,94.54,20.34,5.8.77,10.65-.11,16.14-1.6,10.78-2.92,52.82-17.88,60.07-23.85,5.84-4.81,6.26-9.8,7.97-16.81l1.61-.68,225.28,42.55c-15.72,8.93-31.44,17.93-47.28,26.65-25.83,14.22-56.78,33.05-83.23,44.64-7.71,3.38-16.15,5.86-24.71,5.01l-406.23-93.78,124.88-38.95ZM685.4,720.39c-10.24,1.52-18.73,11.22-9.1,19.56s35.32,4.34,32.12-10.11c-1.97-8.9-15.66-10.55-23.02-9.45ZM753.23,735.45c-6.39-6.34-26.09-6.35-29.87,2.91-8.59,21.07,37.59,23.06,33,2.46-.26-1.17-2.25-4.5-3.13-5.37ZM640.49,740.36c-6.09.53-14.34,4.28-14.85,11.25-1.11,15.28,28.63,18.66,34.1,5.06,4.37-10.88-10.3-17.09-19.25-16.31ZM780.29,743.34c-9.63,1.63-16.37,10.67-8.28,18.79,9.53,9.56,35.38,5.85,31.04-10.07-2.37-8.67-15.29-9.99-22.76-8.72ZM686.37,752.32c-4.31.87-9.62,4.99-10.5,9.51-3.45,17.57,37.93,20.34,34.7-.18-1.48-9.41-16.84-10.82-24.2-9.33ZM741.34,764.35c-18.21,2.6-16.81,23.8,3.71,24.76,26.98,1.26,23.28-28.61-3.71-24.76Z"/>
  <path class="st2" d="M306.01,319.52v111.39c0,3.18-9.01,6.24-11.74,7.24-37.41,13.62-122.58,13.1-160.05-.29-4.48-1.6-9.67-3.55-13.03-6.95v-110.89l2.07-1.1c15.11,4.56,30.8,7.63,46.51,9.47,38.38,4.48,80.61,3.91,118.45-4.18,6.01-1.29,11.82-3.32,17.79-4.68Z"/>
  <path class="st2" d="M709.62,400.44l-87.01,212.71-82.83-14.91,79.08-208.62,90.75,10.82ZM588.44,580.47c-8.5,2.53-7.56,18.89,4.67,17.72,13.79-1.32,9.42-21.91-4.67-17.72Z"/>
  <path class="st2" d="M95.22,171.16c.39-1.32,1.95-1.48,3.24-1.33,8.18.93,23.51,12.27,30.76,3.36,3.42-4.2,1.97-11.79-2.5-14.55-4.2-2.59-28.27-7.34-29.5-8.97-.39-1.78.52-1.97,1.65-2.83,11.41-8.66,63.38-14.14,79.78-16.13,63.05-7.66,126.59-11.64,188.84-24.81l50.41,17.8c-31.61,8.26-63.65,15.03-95.32,23.07-9.55,2.42-18.47,6.52-28.34,8.62-26.66,5.68-57.4,6.89-84.66,6.33-3.35-.07-6.19-1.44-9.96-1.07-14.92,1.47-17.45,24.02,4.03,25.99,18.8,1.73,45.89.19,64.8-2.1,12.98-1.58,25.69-4.93,38.59-6.87v37.96c-15.23,4.98-31.49,8.13-47.47,9.98-39.48,4.56-120.1,3.18-156.01-13.8-2.25-1.06-8.32-3.91-8.32-6.66v-33.97ZM153.89,160.9c-5.94,1.22-10.68,8-9.51,14.01,2.85,14.68,33.28,12.94,29.52-5.52-1.72-8.46-12.93-9.94-20.02-8.49Z"/>
  <path class="st2" d="M781.55,934.92v-102.4l149.84-83.42-.04,67.47c.24,8.15,1.9,17.81,1.11,26-.58,5.98-6.37,7.79-11.13,10.84-40.89,26.18-86.66,53.01-129.12,76.68-3.32,1.85-6.99,4.61-10.66,4.82Z"/>
  <path class="st2" d="M531.8,194.62c-.44-1.65.37-1.59,1.1-2.36,11.46-12.1,19.46-23.57,22.37-40.58l169.32,121.38c-8.39,6.26-17.07,13.22-22.78,22.16-1.91,2.99-4.92,11.64-6.67,13.31-.91.87-1.44,1.36-2.77.84l-160.57-114.75Z"/>
  <path class="st2" d="M297.02,246.59v46.95c-11.68,4.77-24.1,7.2-36.61,8.85-32.91,4.34-68.78,3.87-101.47-2.15-8.7-1.6-19.16-3.71-26.77-8.2v-44.46c54.42,8.48,110.64,9.41,164.84-1Z"/>
  <path class="st0" d="M590.73,703.14c-24.32-5.79-50.98-8.79-74.94-15.47-6.36-1.77-10.33-1.95-13.17-8.81-6.52-15.74,1.03-49.45,18.37-56.97l79.76,13.79c1.57,1.19.52,1.15.15,2.18-.8,2.23-2.37,4.35-3.2,6.81-6.37,18.83-7.77,38.66-6.98,58.46Z"/>
  <path class="st2" d="M758.56,401.44l-91.39,225.77c-5.06-5.16-11.47-8.26-18.09-10.94l86.4-213.21,23.08-1.61Z"/>
  <path class="st1" d="M747.34,291.8c60.94-8.82,55.39,88.1-.25,82.65-44.77-4.39-35.51-77.47.25-82.65Z"/>
  <path class="st2" d="M447.87,140.69c-.75,10.35,1.8,20.04,4.01,29.97l-119.89,30.96c1.19-8.66,1.35-18.61,1.06-27.52-.05-1.6-.33-3.01-1.06-4.42l115.89-28.98Z"/>
  <path class="st0" d="M495.55,108.95c27.35-5.71,37.47,30.77,27.42,51.4-13.6,27.93-45.56,14.76-48-12.28-1.17-12.91,6.21-36.11,20.58-39.11Z"/>
  <path class="st2" d="M654.67,313.52h-24.48c-51.19-38.44-105.08-73.74-155.31-113.43-4.19-3.31,7.16,1.12,7.75,1.25,7.21,1.5,14.58,1.65,21.76,3.21l150.27,108.97Z"/>
  <path class="st0" d="M616.72,704.14c-1.35-17.71-2.89-40.73,7.16-56.26,10.68-16.51,26.33-7.44,31.82,7.78,2.27,6.28,5.04,25.5,1.8,30.84-2.35,3.88-35.07,13.52-40.79,17.64Z"/>
  <path class="st0" d="M698.63,371.46l-67.49-7.96-1.39-1.45,11.59-25.38,46.82,2.81c2.95,10.67,3.31,22.69,10.46,31.98Z"/>
  <path class="st0" d="M462.82,96.78c.95,1.35-3.29,9.88-6.17,8.78l-57.72-20.8c22.33-1.75,43.16,4.91,63.9,12.02Z"/>
  <path d="M654.43,830.23c1.51-.24,2.96-.41,4.46.02,16.5,5.37,34.24,8.15,50.73,13.25,8.97,2.78,16.82,5.1,17.99,15.98,1.1,10.21.88,26.19,1.08,36.97.18,9.86-5.23,12.3-14.12,11.04-8.14-1.16-54.91-13.33-60.23-16.69-3.18-2.01-6.23-5.4-6.68-9.31-1.23-10.68-2.38-33.85-1.03-44.03.5-3.74,4.08-6.63,7.8-7.23ZM705.62,861.99l-36.96-9.99v22.48l36.96,10.49v-22.98Z"/>
  <path d="M685.4,720.39c7.36-1.1,21.05.55,23.02,9.45,3.2,14.45-22.54,18.42-32.12,10.11s-1.14-18.04,9.1-19.56Z"/>
  <path d="M741.34,764.35c27-3.86,30.69,26.02,3.71,24.76-20.53-.96-21.93-22.16-3.71-24.76Z"/>
  <path d="M640.49,740.36c8.94-.78,23.62,5.42,19.25,16.31-5.47,13.6-35.21,10.23-34.1-5.06.51-6.97,8.76-10.71,14.85-11.25Z"/>
  <path d="M780.29,743.34c7.47-1.26,20.39.06,22.76,8.72,4.34,15.92-21.51,19.63-31.04,10.07-8.09-8.12-1.35-17.16,8.28-18.79Z"/>
  <path d="M686.37,752.32c7.35-1.49,22.72-.08,24.2,9.33,3.23,20.52-38.15,17.76-34.7.18.89-4.51,6.2-8.63,10.5-9.51Z"/>
  <path d="M753.23,735.45c.88.87,2.87,4.2,3.13,5.37,4.59,20.61-41.59,18.61-33-2.46,3.78-9.27,23.48-9.25,29.87-2.91Z"/>
  <path d="M588.44,580.47c14.09-4.19,18.46,16.4,4.67,17.72-12.23,1.17-13.17-15.19-4.67-17.72Z"/>
  <path d="M153.89,160.9c7.09-1.45,18.3.03,20.02,8.49,3.75,18.46-26.67,20.21-29.52,5.52-1.17-6.02,3.57-12.8,9.51-14.01Z"/>
  <polygon class="st2" points="705.62 861.99 705.62 884.96 668.66 874.47 668.66 852 705.62 861.99"/>
</svg>